<?xml version="1.0" encoding="UTF-8" standalone="no"?>
<!-- Created with Inkscape (http://www.inkscape.org/) -->

<svg
   xmlns:dc="http://purl.org/dc/elements/1.1/"
   xmlns:cc="http://creativecommons.org/ns#"
   xmlns:rdf="http://www.w3.org/1999/02/22-rdf-syntax-ns#"
   xmlns:svg="http://www.w3.org/2000/svg"
   xmlns="http://www.w3.org/2000/svg"
   xmlns:sodipodi="http://sodipodi.sourceforge.net/DTD/sodipodi-0.dtd"
   xmlns:inkscape="http://www.inkscape.org/namespaces/inkscape"
   width="210mm"
   height="297mm"
   viewBox="0 0 210 297"
   version="1.1"
   id="svg8"
   inkscape:version="0.92.2 (5c3e80d, 2017-08-06)"
   sodipodi:docname="Demand_icon.svg"
   inkscape:export-filename="C:\Software\Modelica Libraries\DisHeatLibPublished\DisHeatLib\Resources\Images\Demand_icon.png"
   inkscape:export-xdpi="150"
   inkscape:export-ydpi="150">
  <defs
     id="defs2">
    <marker
       inkscape:stockid="DotS"
       orient="auto"
       refY="0.0"
       refX="0.0"
       id="DotS"
       style="overflow:visible"
       inkscape:isstock="true">
      <path
         id="path1083"
         d="M -2.5,-1.0 C -2.5,1.7600000 -4.7400000,4.0 -7.5,4.0 C -10.260000,4.0 -12.5,1.7600000 -12.5,-1.0 C -12.5,-3.7600000 -10.260000,-6.0 -7.5,-6.0 C -4.7400000,-6.0 -2.5,-3.7600000 -2.5,-1.0 z "
         style="fill-rule:evenodd;stroke:#ff8500;stroke-width:1pt;stroke-opacity:1;fill:#ff8500;fill-opacity:1"
         transform="scale(0.2) translate(7.4, 1)" />
    </marker>
    <marker
       inkscape:stockid="Arrow1Lend"
       orient="auto"
       refY="0.0"
       refX="0.0"
       id="Arrow1Lend"
       style="overflow:visible;"
       inkscape:isstock="true">
      <path
         id="path1019"
         d="M 0.0,0.0 L 5.0,-5.0 L -12.5,0.0 L 5.0,5.0 L 0.0,0.0 z "
         style="fill-rule:evenodd;stroke:#ff8500;stroke-width:1pt;stroke-opacity:1;fill:#ff8500;fill-opacity:1"
         transform="scale(0.8) rotate(180) translate(12.5,0)" />
    </marker>
    <marker
       inkscape:stockid="EmptyTriangleInL"
       orient="auto"
       refY="0.0"
       refX="0.0"
       id="EmptyTriangleInL"
       style="overflow:visible"
       inkscape:isstock="true">
      <path
         id="path1511"
         d="M 5.77,0.0 L -2.88,5.0 L -2.88,-5.0 L 5.77,0.0 z "
         style="fill-rule:evenodd;fill:#ffffff;stroke:#000000;stroke-width:1pt;stroke-opacity:1"
         transform="scale(-0.8) translate(-6,0)" />
    </marker>
    <marker
       inkscape:stockid="EmptyTriangleInM"
       orient="auto"
       refY="0.0"
       refX="0.0"
       id="EmptyTriangleInM"
       style="overflow:visible"
       inkscape:isstock="true">
      <path
         id="path1514"
         d="M 5.77,0.0 L -2.88,5.0 L -2.88,-5.0 L 5.77,0.0 z "
         style="fill-rule:evenodd;fill:#ffffff;stroke:#ff0000;stroke-width:1pt;stroke-opacity:1"
         transform="scale(-0.4) translate(-4.5,0)" />
    </marker>
    <marker
       inkscape:stockid="Arrow2Mstart"
       orient="auto"
       refY="0.0"
       refX="0.0"
       id="Arrow2Mstart"
       style="overflow:visible"
       inkscape:isstock="true">
      <path
         id="path1384"
         style="fill-rule:evenodd;stroke-width:0.625;stroke-linejoin:round;stroke:#000000;stroke-opacity:1;fill:#000000;fill-opacity:1"
         d="M 8.7185878,4.0337352 L -2.2072895,0.016013256 L 8.7185884,-4.0017078 C 6.9730900,-1.6296469 6.9831476,1.6157441 8.7185878,4.0337352 z "
         transform="scale(0.6) translate(0,0)" />
    </marker>
    <marker
       inkscape:stockid="Arrow1Mstart"
       orient="auto"
       refY="0.0"
       refX="0.0"
       id="Arrow1Mstart"
       style="overflow:visible"
       inkscape:isstock="true">
      <path
         id="path1366"
         d="M 0.0,0.0 L 5.0,-5.0 L -12.5,0.0 L 5.0,5.0 L 0.0,0.0 z "
         style="fill-rule:evenodd;stroke:#000000;stroke-width:1pt;stroke-opacity:1;fill:#000000;fill-opacity:1"
         transform="scale(0.4) translate(10,0)" />
    </marker>
  </defs>
  <sodipodi:namedview
     id="base"
     pagecolor="#ffffff"
     bordercolor="#666666"
     borderopacity="1.0"
     inkscape:pageopacity="1"
     inkscape:pageshadow="2"
     inkscape:zoom="0.24748738"
     inkscape:cx="-1450.126"
     inkscape:cy="585.31916"
     inkscape:document-units="mm"
     inkscape:current-layer="layer1"
     showgrid="true"
     showborder="false"
     inkscape:window-width="1920"
     inkscape:window-height="1017"
     inkscape:window-x="1912"
     inkscape:window-y="-8"
     inkscape:window-maximized="1">
    <inkscape:grid
       type="xygrid"
       id="grid815" />
  </sodipodi:namedview>
  <metadata
     id="metadata5">
    <rdf:RDF>
      <cc:Work
         rdf:about="">
        <dc:format>image/svg+xml</dc:format>
        <dc:type
           rdf:resource="http://purl.org/dc/dcmitype/StillImage" />
        <dc:title />
      </cc:Work>
    </rdf:RDF>
  </metadata>
  <g
     inkscape:label="Ebene 1"
     inkscape:groupmode="layer"
     id="layer1">
    <g
       id="g1060"
       transform="matrix(0.07669758,0,0,0.07669758,-659.36989,76.354949)"
       style="stroke-width:26.07644272;stroke-miterlimit:4;stroke-dasharray:none">
      <g
         id="g1058"
         transform="matrix(0.1,0,0,-0.1,0,512)"
         style="stroke-width:260.76443481;stroke-miterlimit:4;stroke-dasharray:none">
        <path
           id="path1054"
           d="m 3165.9,4983.6 c -126.4,-44 -224,-120.6 -304.4,-239.3 -82.3,-120.6 -107.2,-222.1 -97.6,-384.8 19.2,-298.7 248.9,-532.2 545.6,-559 120.6,-11.5 526.5,32.5 848.1,91.9 111,19.1 206.8,36.4 216.3,36.4 7.7,0 13.4,-118.7 13.4,-264.2 V 3398.5 L 4190.1,3387 c -214.4,-13.4 -312.1,-38.3 -474.8,-116.8 -224,-111 -415.4,-333.1 -495.8,-576.3 l -42.1,-124.4 h -945.7 c -823.2,0 -955.3,-3.8 -1005.1,-30.6 -111,-55.5 -113,-76.6 -113,-995.5 0,-719.8 3.8,-844.3 30.6,-897.9 C 1203.6,521 1197.9,521 2239.3,521 h 936.2 l 44,-118.7 c 107.2,-296.7 329.3,-522.7 626,-633.7 103.4,-40.2 147.4,-42.1 691.1,-47.9 379.1,-3.8 616.5,1.9 685.4,15.3 337,70.8 656.7,367.6 756.2,706.4 l 24.9,82.3 201,-7.7 c 162.7,-5.7 220.2,-15.3 285.3,-49.8 126.4,-67 227.8,-168.5 285.3,-287.2 l 53.6,-109.1 9.6,-532.2 9.6,-534.1 63.2,-55.5 61.3,-55.5 h 873 c 752.4,0 878.8,3.8 928.5,30.6 107.2,55.5 112.9,93.8 112.9,802.2 0,863.4 -26.8,1081.7 -180,1458.8 -109.1,266.1 -247,467.1 -480.5,704.5 -277.6,281.4 -530.3,444.2 -859.6,555.2 -285.2,95.7 -379.1,109.1 -882.6,118.7 l -480.5,9.6 -44.1,124.4 c -76.6,222.1 -214.4,398.2 -411.6,526.5 -155.1,99.5 -325.5,149.3 -560.9,162.7 l -197.2,11.5 v 266.1 c 0,145.5 7.7,264.2 17.2,264.2 9.5,0 84.2,-13.4 166.6,-26.8 325.4,-61.3 601.1,-93.8 792.6,-95.7 172.3,-1.9 214.4,3.8 296.7,42.1 258.4,118.7 407.8,402 354.2,670.1 -55.5,269.9 -271.9,467.1 -543.7,495.9 -155.1,15.3 -882.6,-80.4 -1169.7,-155.1 -86.2,-23 -120.6,-19.1 -363.8,28.7 -308.2,63.2 -827.1,132.1 -972.5,132.1 -55.6,-1.8 -145.5,-17.1 -201.1,-36.3 z m 675.8,-425 c 147.4,-21.1 367.6,-59.4 488.2,-86.2 271.9,-57.4 268,-57.4 526.5,1.9 269.9,59.4 725.6,126.4 905.5,130.2 136,3.8 141.7,1.9 197.2,-59.3 97.7,-109.1 65.1,-264.2 -68.9,-321.6 -47.9,-19.1 -99.6,-21.1 -233.6,-7.7 -338.9,34.5 -771.5,109.1 -957.2,162.7 -93.8,26.8 -111,26.8 -248.9,-7.7 -212.5,-53.6 -532.2,-109.1 -834.7,-145.5 -300.6,-34.5 -369.5,-21.1 -423.1,84.2 -38.3,72.8 -38.3,122.5 0,195.3 61.3,120.7 126.4,126.5 649,53.7 z M 5264.2,2917.9 c 126.4,-67 227.8,-168.5 285.3,-287.2 l 53.6,-109.1 V 1545.2 568.8 L 5538,448.2 c -72.8,-134 -132.1,-191.4 -277.6,-268 l -97.6,-51.7 H 4598 c -553.3,0 -566.7,0 -666.2,45.9 -128.3,57.4 -277.6,218.3 -317.8,342.7 -26.8,80.4 -30.6,222.1 -30.6,1045.3 v 953.4 l 45.9,103.4 c 61.3,132.1 195.3,262.3 323.5,312.1 93.8,36.4 135.9,38.3 664.3,34.5 547.5,-3.9 566.7,-5.8 647.1,-47.9 z M 3162.1,1554.8 V 942.2 h -813.7 -813.6 v 612.6 612.6 h 813.6 813.7 z m 3685.4,591.6 c 744.7,-91.9 1355.4,-616.5 1562.2,-1349.7 40.2,-141.7 44,-197.2 51.7,-827 l 5.7,-673.9 -608.8,3.8 -608.8,5.7 -9.6,421.2 c -9.6,384.8 -15.3,430.7 -55.5,536 -88,220.2 -222.1,388.6 -411.6,511.2 -151.2,97.6 -325.4,149.3 -551.4,162.7 l -187.6,11.5 v 610.7 608.8 h 321.6 c 176.2,0 398.3,-9.5 492.1,-21 z"
           inkscape:connector-curvature="0"
           style="stroke-width:260.76443481;stroke-miterlimit:4;stroke-dasharray:none" />
        <path
           id="path1056"
           d="m 7762.6,-1948.7 c -118.7,-47.9 -700.7,-1054.9 -848.1,-1464.6 -143.6,-407.8 -67,-763.9 229.7,-1064.4 493.9,-499.7 1324.8,-359.9 1627.3,271.8 143.6,302.5 141.7,516.9 -9.6,901.7 -158.9,398.2 -696.9,1301.8 -806,1351.6 -55.5,26.9 -134,26.9 -193.3,3.9 z m 245,-788.7 c 181.9,-304.4 365.7,-664.3 419.3,-827.1 134,-407.8 -141.7,-800.2 -562.9,-804.1 -304.4,-1.9 -545.6,201 -606.9,509.3 -24.9,122.5 0,231.6 109.1,482.4 93.8,214.4 467.1,873 494,873 3.9,0 68.9,-105.3 147.4,-233.5 z"
           inkscape:connector-curvature="0"
           style="stroke-width:260.76443481;stroke-miterlimit:4;stroke-dasharray:none" />
      </g>
    </g>
    <g
       id="g1115"
       transform="matrix(-1,0,0,1,-915.31361,-153.24905)">
      <g
         style="stroke-width:0.18928392"
         transform="matrix(-1.397812,0,0,1.397812,-371.76915,326.64313)"
         id="g1233">
        <g
           style="stroke-width:0.18928392"
           id="g1173">
          <path
             style="stroke-width:0.18928392"
             inkscape:connector-curvature="0"
             d="m 42,14 c -1.654,0 -3,1.346 -3,3 v 26 c 0,1.654 1.346,3 3,3 1.654,0 3,-1.346 3,-3 V 17 c 0,-1.654 -1.346,-3 -3,-3 z m 1,29 c 0,0.552 -0.448,1 -1,1 -0.552,0 -1,-0.448 -1,-1 V 17 c 0,-0.552 0.448,-1 1,-1 0.552,0 1,0.448 1,1 z"
             id="path1163" />
          <path
             style="stroke-width:0.18928392"
             inkscape:connector-curvature="0"
             d="m 32,14 c -1.654,0 -3,1.346 -3,3 v 26 c 0,1.654 1.346,3 3,3 1.654,0 3,-1.346 3,-3 V 17 c 0,-1.654 -1.346,-3 -3,-3 z m 1,29 c 0,0.552 -0.448,1 -1,1 -0.552,0 -1,-0.448 -1,-1 V 17 c 0,-0.552 0.448,-1 1,-1 0.552,0 1,0.448 1,1 z"
             id="path1165" />
          <path
             style="stroke-width:0.18928392"
             inkscape:connector-curvature="0"
             d="m 12,14 c -1.654,0 -3,1.346 -3,3 v 26 c 0,1.654 1.346,3 3,3 1.654,0 3,-1.346 3,-3 V 17 c 0,-1.654 -1.346,-3 -3,-3 z m 1,29 c 0,0.552 -0.448,1 -1,1 -0.552,0 -1,-0.448 -1,-1 V 17 c 0,-0.552 0.448,-1 1,-1 0.552,0 1,0.448 1,1 z"
             id="path1167" />
          <path
             style="stroke-width:0.18928392"
             inkscape:connector-curvature="0"
             d="m 22,14 c -1.654,0 -3,1.346 -3,3 v 26 c 0,1.654 1.346,3 3,3 1.654,0 3,-1.346 3,-3 V 17 c 0,-1.654 -1.346,-3 -3,-3 z m 1,29 c 0,0.552 -0.448,1 -1,1 -0.552,0 -1,-0.448 -1,-1 V 17 c 0,-0.552 0.448,-1 1,-1 0.552,0 1,0.448 1,1 z"
             id="path1169" />
          <path
             sodipodi:nodetypes="sssssccccsssssssssssssssssssssssssssccccccccsssssssssssssssssssssssssssccccccccsscccccccccccccccccsssssssssssssssssssssssssssccccsssssssssssssssssssssssssssccccccccsssssss"
             style="stroke-width:0.18928392"
             inkscape:connector-curvature="0"
             d="m 57.5,17 c 1.379,0 2.5,-1.121 2.5,-2.5 v -3 C 60,10.121 58.879,9 57.5,9 56.121,9 55,10.121 55,11.5 V 12 H 54 V 9 H 51 V 8 C 51,5.794 49.206,4 47,4 44.794,4 43,5.794 43,8 v 1 c 0,0.552 -0.448,1 -1,1 -0.552,0 -1,-0.448 -1,-1 V 8 C 41,5.794 39.206,4 37,4 34.794,4 33,5.794 33,8 v 1 c 0,0.552 -0.448,1 -1,1 -0.552,0 -1,-0.448 -1,-1 V 8 C 31,5.794 29.206,4 27,4 24.794,4 23,5.794 23,8 v 1 c 0,0.552 -0.448,1 -1,1 -0.552,0 -1,-0.448 -1,-1 V 8 C 21,5.794 19.206,4 17,4 14.794,4 13,5.794 13,8 v 1 c 0,0.552 -0.448,1 -1,1 -0.552,0 -1,-0.448 -1,-1 V 8 C 11,5.794 9.206,4 7,4 4.794,4 3,5.794 3,8 v 2 H 0 v 7 H 3 V 43 H 0 v 7 h 3 v 2 c 0,2.206 1.794,4 4,4 2.206,0 4,-1.794 4,-4 v -1 c 0,-0.552 0.448,-1 1,-1 0.552,0 1,0.448 1,1 v 1 c 0,2.206 1.794,4 4,4 2.206,0 4,-1.794 4,-4 v -1 c 0,-0.552 0.448,-1 1,-1 0.552,0 1,0.448 1,1 v 1 c 0,2.206 1.794,4 4,4 2.206,0 4,-1.794 4,-4 v -1 c 0,-0.552 0.448,-1 1,-1 0.552,0 1,0.448 1,1 v 1 c 0,2.206 1.794,4 4,4 2.206,0 4,-1.794 4,-4 v -1 c 0,-0.552 0.448,-1 1,-1 0.552,0 1,0.448 1,1 v 1 c 0,2.206 1.794,4 4,4 2.206,0 4,-1.794 4,-4 v -2 h 3 V 43 H 51 V 17 h 3 v -3 h 1 v 0.5 c 0,1.379 1.121,2.5 2.5,2.5 z M 2,15 v -3 h 1 v 3 z m 0,33 v -3 h 1 v 3 z m 50,-3 v 3 h -1 v -3 z m -3,-2 v 7 2 c 0,1.103 -0.897,2 -2,2 -1.103,0 -2,-0.897 -2,-2 v -1 c 0,-1.654 -1.346,-3 -3,-3 -1.654,0 -3,1.346 -3,3 v 1 c 0,1.103 -0.897,2 -2,2 -1.103,0 -2,-0.897 -2,-2 v -1 c 0,-1.654 -1.346,-3 -3,-3 -1.654,0 -3,1.346 -3,3 v 1 c 0,1.103 -0.897,2 -2,2 -1.103,0 -2,-0.897 -2,-2 v -1 c 0,-1.654 -1.346,-3 -3,-3 -1.654,0 -3,1.346 -3,3 v 1 c 0,1.103 -0.897,2 -2,2 -1.103,0 -2,-0.897 -2,-2 v -1 c 0,-1.654 -1.346,-3 -3,-3 -1.654,0 -3,1.346 -3,3 v 1 C 9,53.103 8.103,54 7,54 5.897,54 5,53.103 5,52 V 50 43 17 10 8 C 5,6.897 5.897,6 7,6 8.103,6 9,6.897 9,8 v 1 c 0,1.654 1.346,3 3,3 1.654,0 3,-1.346 3,-3 V 8 c 0,-1.103 0.897,-2 2,-2 1.103,0 2,0.897 2,2 v 1 c 0,1.654 1.346,3 3,3 1.654,0 3,-1.346 3,-3 V 8 c 0,-1.103 0.897,-2 2,-2 1.103,0 2,0.897 2,2 v 1 c 0,1.654 1.346,3 3,3 1.654,0 3,-1.346 3,-3 V 8 c 0,-1.103 0.897,-2 2,-2 1.103,0 2,0.897 2,2 v 1 c 0,1.654 1.346,3 3,3 1.654,0 3,-1.346 3,-3 V 8 c 0,-1.103 0.897,-2 2,-2 1.103,0 2,0.897 2,2 v 1 8 z m 3,-28 h -1 v -4 h 1 z m 5,-3.5 c 0,-0.275 0.225,-0.5 0.5,-0.5 0.275,0 0.5,0.225 0.5,0.5 v 3 C 58,14.775 57.775,15 57.5,15 57.225,15 57,14.775 57,14.5 Z"
             id="path1171" />
        </g>
        <g
           style="stroke-width:0.18928392"
           id="g1175" />
        <g
           style="stroke-width:0.18928392"
           id="g1177" />
        <g
           style="stroke-width:0.18928392"
           id="g1179" />
        <g
           style="stroke-width:0.18928392"
           id="g1181" />
        <g
           style="stroke-width:0.18928392"
           id="g1183" />
        <g
           style="stroke-width:0.18928392"
           id="g1185" />
        <g
           style="stroke-width:0.18928392"
           id="g1187" />
        <g
           style="stroke-width:0.18928392"
           id="g1189" />
        <g
           style="stroke-width:0.18928392"
           id="g1191" />
        <g
           style="stroke-width:0.18928392"
           id="g1193" />
        <g
           style="stroke-width:0.18928392"
           id="g1195" />
        <g
           style="stroke-width:0.18928392"
           id="g1197" />
        <g
           style="stroke-width:0.18928392"
           id="g1199" />
        <g
           style="stroke-width:0.18928392"
           id="g1201" />
        <g
           style="stroke-width:0.18928392"
           id="g1203" />
      </g>
    </g>
    <path
       style="fill:none;stroke:#000000;stroke-width:3;stroke-linecap:butt;stroke-linejoin:miter;stroke-miterlimit:4;stroke-dasharray:none;stroke-opacity:1"
       d="m -645.58333,233.5 158.75,-148.166666"
       id="path1038"
       inkscape:connector-curvature="0"
       sodipodi:nodetypes="cc" />
  </g>
</svg>
